<svg xmlns="http://www.w3.org/2000/svg" viewBox="0 0 512 512"><rect width="512" height="512" fill="#aed0ec"/><path d="M304.5,272.3h6.4l22.6-54.9h2l23.8,54.9h6.6v1.1H340.4v-1.1h7.1L338.7,252H320.5l-8.4,20.3h6.8v1.1H304.5Zm24.9-42L320.9,251h17.4Z" fill="#1d1d1b"/><path d="M365.1,240.9h14.1v5.4h.1a11.5,11.5,0,0,1,10.5-6.1c7.2,0,9.1,3.3,10.6,6.1a11.4,11.4,0,0,1,10.2-6.1c11.5,0,11.5,7.8,11.5,11.4v20.7h5v1.1H408.5v-1.1h4.4V248.8c0-4.2-1.4-6.5-5.1-6.5a7.7,7.7,0,0,0-7.1,7.7v22.3h4.5v1.1H387v-1.1h4.5V248.2c0-4.3-2.3-5.9-4.6-5.9a6.8,6.8,0,0,0-5.3,2.6c-1.7,2-2.3,3.9-2.3,8.9v18.5h4.5v1.1H365.1v-1.1h5V242h-5Z" fill="#1d1d1b"/><path d="M462.2,257.1c0,9.4-8,17.3-18.5,17.3s-18.5-7.9-18.5-17.3,8.1-17.3,18.5-17.3S462.2,247.8,462.2,257.1Zm-10.2,0c0-8.1-.4-16.2-8.3-16.2s-8.2,8.1-8.2,16.2.3,16.3,8.2,16.3S452,265.3,452,257.1Z" fill="#1d1d1b"/><path d="M50.9,219.5H75.7v1H68.8v51.8H81.3c6.6,0,14-4.2,16.5-16h1v17.1H50.9v-1.1h6.9V220.5H50.9Z" fill="#1d1d1b"/><path d="M137.3,257.1c0,9.4-8,17.3-18.4,17.3s-18.5-7.9-18.5-17.3,8-17.3,18.5-17.3S137.3,247.8,137.3,257.1Zm-10.2,0c0-8.1-.4-16.2-8.2-16.2s-8.3,8.1-8.3,16.2.4,16.3,8.3,16.3S127.1,265.3,127.1,257.1ZM122.3,220a3.2,3.2,0,0,1,3.2-2.3c.8,0,2.5.7,2.5,2.2a3.1,3.1,0,0,1-.7,2.1l-10.7,11.3h-1Z" fill="#1d1d1b"/><path d="M140.9,242h-5v-1.1H150v5.6h.1c1.6-4.4,4.6-6.7,9-6.7,11.6,0,16.4,10.3,16.4,17.3,0,9-6.6,17.3-16.4,17.3-4.7,0-7.5-2.9-8.8-6.5h-.2v25.6h5.2v1.1H135.9v-1.1h5Zm18.2,31.4c5.6,0,6.2-6.4,6.2-16.2,0-12.2-1.7-16.3-6.9-16.3-7.4,0-8.3,9.5-8.3,16.3s.5,16.2,9,16.2Z" fill="#1d1d1b"/><path d="M188.6,254.4v3.4c0,7.2.6,15.6,9.6,15.6s10.9-7.1,11.2-8.8l1,.4c-1,3.7-4.6,9.4-13.4,9.4-10.5,0-18.7-6.6-18.7-17.4,0-8.7,7.8-17.2,17.7-17.2,6.9,0,14.9,4.3,14.9,14.6Zm12.1-1.1v-5.1c0-2.1,0-7.3-5-7.3-6.8,0-6.9,7.3-7.1,12.4Z" fill="#1d1d1b"/><path d="M231.1,242h-6.8c-5.4,0-7.3,2.6-9.6,7.9h-.9l1.2-9h27l-18.3,31.4h9.2c6.4,0,7.9-4.8,9.4-9.4h.8l-.8,10.5H212.7Z" fill="#1d1d1b"/><path d="M266.3,267.6a12.3,12.3,0,0,0-1,4.2c0,.8.4,1.2,1.1,1.2,2.4,0,4-3.2,4.3-4l.6.4c-.7,1.3-2.5,4.6-5.9,4.6s-3-1-3-2.8a10.9,10.9,0,0,1,.5-2.6h-.1c-1.6,2.1-4.4,5.4-8.4,5.4s-4.9-1.9-4.9-5.9c0-7.5,9.6-15.1,14.4-15.1a3.1,3.1,0,0,1,3.3,2.9h.1l6-16.9h-4.1l.2-.6h7.3Zm-.4-7.9a9,9,0,0,0,.9-3.2,2.7,2.7,0,0,0-2.4-2.8h-.3c-6.1,0-11.4,11.2-11.4,16.3,0,2,.7,3.3,2.5,3.3,3.5,0,7.7-5.2,8.3-6.9Z" fill="#fff"/><path d="M288.1,268.9c-.7.8-2.9,5.1-8.1,5.1a6.8,6.8,0,0,1-7.2-6.4V267c0-6.1,6.5-14,12.9-14,2.5,0,5.1,1.1,5.1,3.5,0,4.9-8.9,6.1-10.8,6.1a13.2,13.2,0,0,1-2.8-.2,20.6,20.6,0,0,0-1.2,6c0,3.3,1.9,4.9,4.6,4.9s6-3.5,6.9-4.8Zm-2.5-15.2c-3.9,0-7.1,4.9-8.2,8.1l2.4.2c4.4,0,8.2-2.9,8.2-6.1a2,2,0,0,0-2-2.2Z" fill="#fff"/><path d="M305.9,238.4l-11,30.8a8.9,8.9,0,0,0-.7,2.8,1.2,1.2,0,0,0,1.1,1.3h.2c2,0,3.9-3.1,4.4-4.1l.5.2c-.5,1-2,4.6-5.7,4.6-2,0-3.3-.9-3.3-2.8a9.9,9.9,0,0,1,.8-3.4L302.5,239h-4.1l.2-.6Z" fill="#fff"/></svg>